<svg xmlns="http://www.w3.org/2000/svg" xmlns:xlink="http://www.w3.org/1999/xlink" width="250" height="200" viewBox="0 0 250 200"><defs><clipPath id="b"><rect width="250" height="200"/></clipPath></defs><g id="a" clip-path="url(#b)"><g transform="translate(41 41)"><circle cx="9.204" cy="9.204" r="9.204" transform="translate(77.108 100.439)" fill="#222329"/><path d="M417.87,308.211c5.149-1.546,10.623-3.159,14.706-6.835,3.649-3.285,6.112-8.3,4.6-13.227s-6.027-8.194-10.692-9.825a43.87,43.87,0,0,0-8.181-1.841c-3.008-.438-6.03-.8-9.05-1.142q-18.342-2.1-36.823-2.563c-6.079-.153-12.157-.149-18.237-.061-5.43.079-11.149.077-16.186-2.231-3.917-1.795-7.472-5.06-8.564-9.35-1.26-4.953,1.064-10,4.4-13.584a35.6,35.6,0,0,1,5.93-4.945c2.3-1.587,4.677-3.062,7.107-4.439a98.967,98.967,0,0,1,14.959-6.9c2.55-.927,5.138-1.727,7.749-2.465a66.3,66.3,0,0,0,6.546-2.1c4.118-1.641,8.035-4.422,9.082-8.98.992-4.32-.681-9.01-3.614-12.219-3.394-3.713-8.511-5.34-13.417-5.6-5.508-.3-10.889,1.083-16.066,2.832-5.521,1.866-10.924,4.011-16.562,5.523a111.43,111.43,0,0,1-17.046,3.169,46.237,46.237,0,0,1-8.555.409,10.344,10.344,0,0,1-6.489-2.577,6.418,6.418,0,0,1-2.088-5.529c.056-.381.634-.219.579.16-.374,2.552,1.361,4.9,3.5,6.108,2.471,1.392,5.477,1.394,8.228,1.235a107.609,107.609,0,0,0,17.71-2.56,142.324,142.324,0,0,0,16.747-5.17c5.233-1.9,10.583-3.745,16.174-4.155a24.153,24.153,0,0,1,14.18,2.886,15.687,15.687,0,0,1,7.316,10.208,11.832,11.832,0,0,1-3.481,11.268c-3.266,3.01-7.743,4.3-11.916,5.483a109.167,109.167,0,0,0-15.484,5.543,97.2,97.2,0,0,0-14.566,8.189c-4.451,3.042-8.844,6.869-10.251,12.295a11.326,11.326,0,0,0,.563,7.6,13.88,13.88,0,0,0,4.454,5.286c4.466,3.286,10.094,3.961,15.489,4.028,6.059.075,12.117-.129,18.178-.03q18.527.3,36.978,2.255,4.623.489,9.235,1.082a83.5,83.5,0,0,1,8.259,1.339c4.834,1.122,9.538,3.28,12.543,7.378a11.668,11.668,0,0,1,.994,12.758c-2.307,4.54-6.629,7.427-11.219,9.325a79.6,79.6,0,0,1-7.553,2.55.3.3,0,0,1-.16-.579Z" transform="translate(-276.576 -189.883)" fill="#f2f2f2"/><circle cx="4.802" cy="4.802" r="4.802" transform="translate(20.386 9.103)" fill="#f2f2f2"/><circle cx="4.802" cy="4.802" r="4.802" transform="translate(53.699 18.207)" fill="#f2f2f2"/><circle cx="4.802" cy="4.802" r="4.802" transform="translate(81.91)" fill="#f2f2f2"/><circle cx="4.802" cy="4.802" r="4.802" transform="translate(99.517 20.408)" fill="#f2f2f2"/><circle cx="4.802" cy="4.802" r="4.802" transform="translate(75.708 44.017)" fill="#f2f2f2"/><circle cx="4.802" cy="4.802" r="4.802" transform="translate(45.496 55.421)" fill="#f2f2f2"/><circle cx="4.802" cy="4.802" r="4.802" transform="translate(77.508 73.228)" fill="#f2f2f2"/><circle cx="4.802" cy="4.802" r="4.802" transform="translate(111.922 83.232)" fill="#f2f2f2"/><circle cx="4.802" cy="4.802" r="4.802" transform="translate(152.137 81.031)" fill="#f2f2f2"/><path d="M498.706,220.37a26.634,26.634,0,0,0-26.366,26.173c0,.133,0,1.067,0,2.288a6.752,6.752,0,0,0,6.751,6.752h0a6.756,6.756,0,0,0,6.755-6.761c0-.832,0-1.407,0-1.443a12.8,12.8,0,1,1,19.712,10.78l0,0s-9.609,6.186-12.539,14.673h0a18.808,18.808,0,0,0-.775,5.356c0,.745.044,7.267.129,12.56a6.96,6.96,0,0,0,6.961,6.847h0a6.962,6.962,0,0,0,6.961-7c-.029-4.848-.045-10.492-.045-10.9,0-5.211,5.027-10.4,9.156-13.789a27.771,27.771,0,0,0,9.551-15.206,17.358,17.358,0,0,0,.5-3.768,26.56,26.56,0,0,0-26.752-26.559Z" transform="translate(-413.38 -206.764)" fill="#222329"/><path d="M346.425,745.726H177.9a.238.238,0,0,1,0-.477H346.424a.238.238,0,1,1,0,.476Z" transform="translate(-177.662 -626.628)" fill="#3f3d56"/><circle cx="6.002" cy="6.002" r="6.002" transform="translate(119.736 42.616)" fill="#2f2e41"/><path d="M558.54,544.3h-2.453l-1.167-9.461h3.62Z" transform="translate(-443.893 -427.832)" fill="#a0616a"/><path d="M540.088,578.626h4.731V581.6h-7.709A2.979,2.979,0,0,1,540.088,578.626Z" transform="translate(-429.646 -462.856)" fill="#2f2e41"/><path d="M653.54,544.3h-2.453l-1.167-9.461h3.62Z" transform="translate(-519.886 -427.832)" fill="#a0616a"/><path d="M635.088,578.626h4.731V581.6h-7.709A2.979,2.979,0,0,1,635.088,578.626Z" transform="translate(-505.639 -462.856)" fill="#2f2e41"/><circle cx="4.914" cy="4.914" r="4.914" transform="translate(119.912 44.827)" fill="#a0616a"/><path d="M745.946,448.708l2.2-5.052a6.279,6.279,0,0,0-1.391-7.123,6.389,6.389,0,0,0-.614-.534,6.19,6.19,0,0,0-3.8-1.314,6.438,6.438,0,0,0-2.681.6c-.072.032-.142.066-.214.1-.138.066-.274.138-.406.212a6.338,6.338,0,0,0-3.141,4.778l-.97,8.131c-.244.638-8.951,23.687-5.906,41.284a.894.894,0,0,0,.764.734l3.087.42a.9.9,0,0,0,1-.706l5.18-24.691a.7.7,0,0,1,1.36-.046l7.319,25.966a.9.9,0,0,0,.862.656,1.028,1.028,0,0,0,.174-.016l3.771-.726a.9.9,0,0,0,.726-.962C752.714,484.234,749.769,453.276,745.946,448.708Z" transform="translate(-618.191 -378.2)" fill="#2f2e41"/><path d="M706.048,414.217a2.012,2.012,0,0,0,2.12,2.241l2.747,6.6,2.078-3.08-2.927-5.8a2.023,2.023,0,0,0-4.017.034Z" transform="translate(-600.319 -360.386)" fill="#a0616a"/><path d="M791.09,505.628a2.012,2.012,0,0,0,1.686-2.584l5.779-4.209-3.479-1.3-4.955,4.2a2.023,2.023,0,0,0,.969,3.9Z" transform="translate(-666.536 -428.473)" fill="#a0616a"/><path d="M724.7,448.238a3.412,3.412,0,0,1-.66-.065,3.262,3.262,0,0,1-2.39-1.924l-3.848-4.692a.9.9,0,0,1,.222-1.337l2.738-1.695a.9.9,0,0,1,1.244.3l2.712,4.469,5.194-3.839a1.945,1.945,0,0,1,2.263,3.114l-5.184,4.729A3.252,3.252,0,0,1,724.7,448.238Z" transform="translate(-609.572 -381.164)" fill="#2f2e41"/><path d="M809.92,461.162H809.9a.9.9,0,0,1-.662-.314l-2.434-2.84a.9.9,0,0,1,.184-1.335l4.558-3.039-4.129-4.964a1.945,1.945,0,0,1,2.979-2.437l5.019,4.9a3.306,3.306,0,0,1-.735,5.39l-4.1,4.352A.9.9,0,0,1,809.92,461.162Z" transform="translate(-680.753 -387.03)" fill="#2f2e41"/><path d="M784.439,439.868a.929.929,0,0,1-.117-.007.892.892,0,0,1-.743-.614l-1.829-5.608a.617.617,0,0,1,.319-.745l.059-.028c.054-.026.107-.051.162-.075a6.518,6.518,0,0,1,2.722-.6,6.268,6.268,0,0,1,3.434,1.032.626.626,0,0,1,.18.859l-3.431,5.376a.891.891,0,0,1-.756.416Z" transform="translate(-660.862 -376.201)" fill="#e6e6e6"/><circle cx="1.964" cy="1.964" r="1.964" transform="translate(128.506 42.01)" fill="#2f2e41"/><path d="M775.313,361.365h0a5.2,5.2,0,0,0-5.2,5.2v2.2h2.707l1.295-2.2.388,2.2h8.215l-2.2-2.2A5.2,5.2,0,0,0,775.313,361.365Z" transform="translate(-651.576 -319.55)" fill="#2f2e41"/><path d="M834.809,357a3.031,3.031,0,0,1,3.3-2.08,4.2,4.2,0,0,1,2.831,2.339,23.033,23.033,0,0,1,1.258,3.587,6.5,6.5,0,0,0,1.959,3.2,2.916,2.916,0,0,0,3.519.189,4.025,4.025,0,0,1-7.5,1.437,8.707,8.707,0,0,1-.806-3.051,6.669,6.669,0,0,0-.973-2.989,2.473,2.473,0,0,0-2.762-1.028Z" transform="translate(-703.329 -314.374)" fill="#2f2e41"/><path d="M480.617,296.345h0a6.752,6.752,0,0,1-6.751-6.751c0-1.222,0-2.156,0-2.288a26.312,26.312,0,0,1,3.073-11.986,26.371,26.371,0,0,0-5.074,15.188c0,.133,0,1.066,0,2.288a6.752,6.752,0,0,0,6.751,6.752h0a6.757,6.757,0,0,0,6.5-4.92A6.727,6.727,0,0,1,480.617,296.345Z" transform="translate(-413.002 -250.72)" fill="#3f3d56"/><path d="M565.005,278.621a12.806,12.806,0,0,1,11.136,17.889,12.8,12.8,0,1,0-21.493-13.4A12.779,12.779,0,0,1,565.005,278.621Z" transform="translate(-479.222 -250.788)" fill="#3f3d56"/><path d="M580.454,481.241h0a6.96,6.96,0,0,1-6.961-6.849c-.085-5.292-.129-11.813-.129-12.559a18.809,18.809,0,0,1,.775-5.356h0a19.019,19.019,0,0,1,1.1-2.541,22.019,22.019,0,0,0-3.1,5.742h0a18.811,18.811,0,0,0-.775,5.356c0,.745.044,7.267.129,12.56a6.96,6.96,0,0,0,6.961,6.847h0a6.963,6.963,0,0,0,6.683-5.01A6.935,6.935,0,0,1,580.454,481.241Z" transform="translate(-492.594 -393.6)" fill="#3f3d56"/><path d="M126.539,544.757h2.453l1.167-9.461h-3.62Z" transform="translate(-101.221 -428.196)" fill="#ffb8b8"/><path d="M0,0H7.709V2.979H2.979A2.979,2.979,0,0,1,0,0Z" transform="translate(32.501 118.839) rotate(179.997)" fill="#2f2e41"/><path d="M82.539,544.757h2.453l1.167-9.461h-3.62Z" transform="translate(-66.024 -428.196)" fill="#ffb8b8"/><path d="M0,0H7.709V2.979H2.979A2.979,2.979,0,0,1,0,0Z" transform="translate(23.697 118.839) rotate(179.997)" fill="#2f2e41"/><path d="M257.8,589.173l-2.4-.126a.935.935,0,0,1-.884-.994l2.864-31.705,13.187,3.558,1.271-.347-3.973,28.068a.94.94,0,0,1-.872.789l-2.583.12a.935.935,0,0,1-.987-.959l.468-16.846a.312.312,0,0,0-.617-.072l-4.513,17.769a.929.929,0,0,1-.914.745Z" transform="translate(-239.138 -475.521)" fill="#2f2e41"/><circle cx="4.914" cy="4.914" r="4.914" transform="translate(20.844 45.057)" fill="#ffb8b8"/><path d="M265.477,443.159l.54,11.658.2,4.241a.929.929,0,0,0,.615.835l12.672,4.59a.894.894,0,0,0,.32.056.929.929,0,0,0,.933-.958l-.519-20.962a7.389,7.389,0,0,0-6.151-7.138c-.123-.019-.247-.037-.372-.054a7.253,7.253,0,0,0-5.835,1.889,7.45,7.45,0,0,0-2.4,5.841Z" transform="translate(-247.901 -378.751)" fill="#ccc"/><path d="M344.38,533.3a2.013,2.013,0,0,1-1.074-3.047l-4.3-5.714,3.708-.23,3.512,5.461a2.023,2.023,0,0,1-1.849,3.529Z" transform="translate(-306.727 -449.894)" fill="#ffb8b8"/><path d="M322.057,471.335a.929.929,0,0,1-.508-.5l-6.474-15.425a2.494,2.494,0,1,1,4.6-1.93l6.474,15.425a.936.936,0,0,1-.5,1.224l-2.874,1.206a.929.929,0,0,1-.716,0Z" transform="translate(-287.426 -392.008)" fill="#ccc"/><path d="M298.066,496.436l6.218-11.906a.976.976,0,0,1,1.315-.413l9.026,4.714a.976.976,0,0,1,.413,1.316l-6.218,11.906a.976.976,0,0,1-1.315.413l-9.026-4.714A.976.976,0,0,1,298.066,496.436Z" transform="translate(-273.887 -417.653)" fill="#3f3d56"/><path d="M283.078,499.573a2.014,2.014,0,0,0-3.1-.892l-5.958-3.952-.01,3.715,5.659,3.184a2.023,2.023,0,0,0,3.413-2.054Z" transform="translate(-254.729 -426.23)" fill="#ffb8b8"/><path d="M252.874,459.865,248,456.008a3.434,3.434,0,0,1-1.565-5.429l4.421-5.794a2.02,2.02,0,0,1,3.427,2.058l-3.5,5.722L255.931,455a.935.935,0,0,1,.39,1.344l-2.075,3.284a.937.937,0,0,1-.634.422l-.015,0A.939.939,0,0,1,252.874,459.865Z" transform="translate(-232.058 -385.686)" fill="#ccc"/><path d="M278.186,377.744a.427.427,0,0,1,.371-.564.987.987,0,0,1,.7.343,2.768,2.768,0,0,0,.614.528.529.529,0,0,0,.7-.126.968.968,0,0,0-.037-.751,7.382,7.382,0,0,1-.326-1.955,3.442,3.442,0,0,1,.492-2.09,2.766,2.766,0,0,1,2.37-1.008,15.926,15.926,0,0,1,2.662.471.894.894,0,0,0,.871-.146,1.122,1.122,0,0,0,.045-1,6.952,6.952,0,0,0-1.053-2.511,3.781,3.781,0,0,0-2.413-1.359,5.79,5.79,0,0,0-2.694.306,7.222,7.222,0,0,0-3.538,2.465,5.849,5.849,0,0,0-1.116,4.322,5.335,5.335,0,0,0,1.978,3.372Z" transform="translate(-256.141 -324.483)" fill="#2f2e41"/><path d="M570.166,677.963a9.2,9.2,0,0,1-3.415-14.3,9.2,9.2,0,1,0,12.518,13.3,9.2,9.2,0,0,1-9.1,1.005Z" transform="translate(-485.882 -561.363)" fill="#3f3d56"/></g></g></svg>