<svg xmlns="http://www.w3.org/2000/svg" xmlns:xlink="http://www.w3.org/1999/xlink" width="319" height="212" viewBox="0 0 319 212"><defs><clipPath id="b"><rect width="319" height="212"/></clipPath></defs><g id="a" clip-path="url(#b)"><g transform="translate(24 22.001)"><path d="M509.507,358.615l-.343-.356c.068-.065,6.813-6.67,9.383-19.012,2.374-11.4,1.572-30.162-15.729-54.831-7.229-10.307-12.158-20.046-14.652-28.945-2.037-7.271-2.469-14.031-1.282-20.091,2.346-11.981,10.32-17.241,10.4-17.293l.268.416c-.079.051-7.886,5.212-10.186,16.988-2.639,13.51,2.7,29.876,15.857,48.642,7.685,10.958,12.8,21.689,15.2,31.893a53.583,53.583,0,0,1,.6,23.354C516.416,351.859,509.575,358.548,509.507,358.615Z" transform="translate(-381.837 -192.215)" fill="#f2f2f2"/><circle cx="19.14" cy="19.14" r="19.14" transform="translate(91.929 15.185)" fill="#f2f2f2"/><path d="M452.081,165.606a26.079,26.079,0,1,1,26.079-26.079A26.079,26.079,0,0,1,452.081,165.606Zm0-51.663a25.584,25.584,0,1,0,25.584,25.584,25.584,25.584,0,0,0-25.584-25.584Z" transform="translate(-336.499 -113.449)" fill="#f2f2f2"/><circle cx="15.872" cy="15.872" r="15.872" transform="translate(114.337 61.869)" fill="#f2f2f2"/><circle cx="15.872" cy="15.872" r="15.872" transform="translate(106.246 116.956)" fill="#f2f2f2"/><rect width="58.103" height="37.828" transform="translate(130.649 28.185)" fill="#222329"/><path d="M976.938,704.613H923.127s-1.091-16,5.363-16.18,5.727,7.09,13.816-2.909,17.907-9.453,19.179-3.545-2.454,10.635,4.363,9.181S982.483,693.523,976.938,704.613Z" transform="translate(-710.66 -538.217)" fill="#f2f2f2"/><path d="M1027.937,704.33l-.182-.007c.423-10.533,2.63-17.3,4.405-21.123a19.175,19.175,0,0,1,3.8-5.847l.121.136a19.043,19.043,0,0,0-3.768,5.8C1030.553,687.1,1028.357,693.837,1027.937,704.33Z" transform="translate(-789.472 -537.931)" fill="#fff"/><path d="M1106.729,750.433l-.175-.051a28.2,28.2,0,0,1,7.1-11.812l.122.135A28.007,28.007,0,0,0,1106.729,750.433Z" transform="translate(-848.788 -584.013)" fill="#fff"/><path d="M943.092,738.3l-.18-.025a19.8,19.8,0,0,0-1.781-11.573,15.934,15.934,0,0,0-2.811-4.1l.126-.131a16.136,16.136,0,0,1,2.848,4.152A19.981,19.981,0,0,1,943.092,738.3Z" transform="translate(-722.149 -571.895)" fill="#fff"/><path d="M142.125,699.562l-.124-.255c-.038-.078-3.755-7.848-1.683-15.51s9.2-12.5,9.272-12.547l.236-.158.124.255c.038.078,3.755,7.848,1.682,15.51s-9.2,12.5-9.272,12.547Zm7.5-27.732c-1.248.908-7.021,5.405-8.831,12.1s.908,13.486,1.529,14.9c1.248-.908,7.021-5.405,8.831-12.1h0c1.811-6.7-.908-13.486-1.529-14.9Z" transform="translate(-120.976 -533.218)" fill="#3f3d56"/><path d="M108.868,687.9c2.072,7.661,9.171,12.406,9.171,12.406s3.739-7.676,1.666-15.337-9.171-12.406-9.171-12.406S106.8,680.237,108.868,687.9Z" transform="translate(-97.303 -534.324)" fill="#222329"/><path d="M85.65,723.173l-.283-.015c-.086,0-8.684-.535-14.371-6.071s-6.448-14.117-6.455-14.2l-.023-.282.283.016c.086,0,8.684.535,14.371,6.071s6.448,14.117,6.455,14.2ZM65.065,703.134c.187,1.532,1.309,8.764,6.276,13.6s12.225,5.763,13.762,5.908c-.187-1.532-1.309-8.763-6.276-13.6h0C73.857,704.2,66.6,703.279,65.065,703.134Z" transform="translate(-64.389 -556.937)" fill="#3f3d56"/><path d="M155.282,709.663c-5.687,5.536-6.381,14.046-6.381,14.046s8.526-.465,14.212-6,6.381-14.046,6.381-14.046S160.969,704.128,155.282,709.663Z" transform="translate(-127.91 -557.735)" fill="#3f3d56"/><path d="M342.282,515.663c-5.687,5.536-6.381,14.046-6.381,14.046s8.526-.466,14.212-6,6.381-14.046,6.381-14.046S347.969,510.128,342.282,515.663Z" transform="translate(-268.675 -411.701)" fill="#3f3d56"/><circle cx="3.709" cy="3.709" r="3.709" transform="translate(17.164 129.556)" fill="#222329"/><path d="M273.811,445.328l-.343-.356c.054-.052,5.4-5.292,7.441-15.084,1.882-9.043,1.243-23.934-12.489-43.513-10.531-15.017-14.793-28.136-12.667-38.995,1.868-9.539,8.221-13.73,8.285-13.771l.268.416c-.062.04-6.248,4.132-8.07,13.466-2.092,10.718,2.143,23.706,12.589,38.6,6.109,8.711,10.176,17.241,12.087,25.354a42.619,42.619,0,0,1,.474,18.576C279.311,439.95,273.865,445.275,273.811,445.328Z" transform="translate(-207.944 -279.176)" fill="#3f3d56"/><ellipse cx="44.504" cy="7.635" rx="44.504" ry="7.635" transform="translate(18.895 51.486)" fill="#222329"/><path d="M119.433,315.734c-30.848,0-55.012-4.236-55.012-9.643s24.164-9.643,55.012-9.643,55.012,4.236,55.012,9.643S150.281,315.734,119.433,315.734Zm0-18.791c-29.551,0-54.518,4.189-54.518,9.148s24.966,9.148,54.518,9.148,54.518-4.189,54.518-9.148S148.985,296.943,119.433,296.943Z" transform="translate(-64.317 -251.204)" fill="#3f3d56"/><path d="M308.4,183.411s-6.595-1.858-8.546,7.152-.464,13.561-.464,13.561l14.722-1.718S318.293,186.151,308.4,183.411Z" transform="translate(-240.784 -165.994)" fill="#2f2e41"/><path d="M272.743,341.729s-9.674.963-7.951,4.869a27.857,27.857,0,0,1,1.723,4.25l8.5,15.162,2.757-2.872s-3.1-6.777-3.1-8.96-3.216-5.973-3.216-5.973l5.628-.46Z" transform="translate(-214.992 -285.288)" fill="#a0616a"/><path d="M383.111,359.093l3.216,7.007s2.412,2.412,5.054,12.061,3.216,9.3,3.216,9.3l-4.02.8s-4.48-10.453-5.973-11.257-3.331-8.156-3.331-8.156l-5.284-6.662,1.608-3.561Z" transform="translate(-298.851 -298.014)" fill="#a0616a"/><path d="M316.256,320.277l4.939,9.189s-6.2-2.872-7.122,3.446l-5.628-4.365s-7.811,2.527-12.52,1.608c0,0,1.378-4.365-3.561-6.318l11.142-1.378-.459-2.412,1.149-2.3Z" transform="translate(-235.902 -267.238)" fill="#2f2e41"/><path d="M302.153,421.588s-3.1-.459-2.3,2.3l1.608,5.514s-2.068,5.628,1.149,4.365,5.284-9.074,5.284-9.074,1.378-5.973,0-5.973-5.743-.919-5.284,0S302.153,421.588,302.153,421.588Z" transform="translate(-241.442 -342.933)" fill="#2f2e41"/><path d="M432.645,467.745s-4.02-1.034-4.939.574-.689,6.892-.689,7.007a4.688,4.688,0,0,0,1.838,1.264c.459,0,3.331,5.169,7.237,3.331S432.645,467.745,432.645,467.745Z" transform="translate(-337.243 -379.901)" fill="#2f2e41"/><circle cx="4.48" cy="4.48" r="4.48" transform="translate(61.975 22.484)" fill="#a0616a"/><path d="M333.118,226.227s.919,4.824,1.723,5.514-6.088,1.723-6.088,1.723,1.034-3.331-.23-5.054S333.118,226.227,333.118,226.227Z" transform="translate(-262.987 -198.344)" fill="#a0616a"/><path d="M329.586,264.406a40.621,40.621,0,0,1-5.007-.741c-1.932-.361-4.047-.789-5.715-1.136-1.786-.372-3.062-.65-3.062-.65s-.459,2.872-1.953,2.527c-1.286-.3-5.131-13.725-6.171-17.437a1.291,1.291,0,0,1,.571-1.451l5.28-3.224,1.353.517s2.286-1.767,3.613-1.8,3.624-.38,3.624-.38,2.642.23,3.1,2.182.689,14.129,2.412,16.311S331.769,264.406,329.586,264.406Z" transform="translate(-247.394 -209.184)" fill="#d0cde1"/><path d="M331.389,359.668s0,4.48,2.987,3.791.23-4.824.23-4.824Z" transform="translate(-265.278 -298.014)" fill="#a0616a"/><path d="M352.094,361.526s-1.034,5.284-3.216,4.48,0-5.514,0-5.514Z" transform="translate(-277.713 -299.412)" fill="#a0616a"/><path d="M360.8,284.307s-1.125,2.683-2.021,4.888c-1.932-.361-4.047-.789-5.715-1.136a3.29,3.29,0,0,1,.5-.88c.8-.919.345-1.149.345-1.149a4.97,4.97,0,0,1-.115-3.216c-1.378-3.676.689-8.27.689-8.27Z" transform="translate(-281.596 -234.714)" opacity="0.15"/><path d="M351.45,264.757s-2.068,4.595-.689,8.27a4.97,4.97,0,0,0,.115,3.216s.459.23-.345,1.149-1.493,4.135-.919,4.824-.8,1.953-.459,2.642-.574,1.608-.574,1.608,3.446.689,4.02,1.723a1.859,1.859,0,0,0,.345-1.723,1.7,1.7,0,0,1,.23-1.838,13.759,13.759,0,0,0,1.493-2.412c.115-.574,3.1-7.7,3.1-7.7l-1.4-12.978Z" transform="translate(-278.218 -224.927)" fill="#d0cde1"/><path d="M307.993,261.535l-.215.039a1.291,1.291,0,0,0-1.061,1.28c.008,1.153.073,3.2.356,6.033a75.29,75.29,0,0,0,2.412,12.176,36.665,36.665,0,0,0,1.838,3.561c1.034,1.723,1.263,1.149,1.034,1.953a1.21,1.21,0,0,0,.345,1.264s2.068-2.3,4.135-1.034a2.56,2.56,0,0,0,.23-1.034c0-.574.345-1.149-.23-1.493s.345-1.838-.574-2.642-1.034-.689-.919-1.493a3.422,3.422,0,0,0-.23-1.608Z" transform="translate(-246.707 -224.922)" fill="#d0cde1"/><path d="M317.781,199.235s-1.858,4.923-6.409,6.966l-.743-4.366Z" transform="translate(-249.651 -178.025)" fill="#2f2e41"/><ellipse cx="0.632" cy="1.206" rx="0.632" ry="1.206" transform="translate(70.188 24.035)" fill="#a0616a"/><circle cx="8.024" cy="8.024" r="8.024" transform="translate(192.693 72.678)" fill="#2f2e41"/><circle cx="2.665" cy="2.665" r="2.665" transform="translate(196.98 67.497)" fill="#2f2e41"/><path d="M856.308,393.043a2.666,2.666,0,0,1,.228-3.568q-.112.072-.218.156a2.665,2.665,0,1,0,3.316,4.174,2.622,2.622,0,0,0,.2-.177A2.666,2.666,0,0,1,856.308,393.043Z" transform="translate(-659.663 -321.23)" fill="#2f2e41"/><path d="M794.8,557.219l-4.644,3.93s-6.966,2.144-3.573,4.466,5.359-2.858,5.359-2.858l5.716-3.573Z" transform="translate(-607.227 -447.5)" fill="#ffb9b9"/><path d="M828.307,486.774l-.536-.357a2.558,2.558,0,0,0-2.5,2.143c-.357,2.144-1.429,6.609-1.429,6.609s-3.573,2.144-3.215,6.073l-3.751,3.215s4.466,1.429,3.573,2.679l6.609-6.073.179-11.611Z" transform="translate(-630.73 -394.203)" fill="#2f2e41"/><circle cx="4.644" cy="4.644" r="4.644" transform="translate(195.076 79.174)" fill="#ffb9b9"/><path d="M862.2,458.939s2.858,3.215,1.072,5-2.322,10.539-2.322,10.539l7.86-11.968s-2.144-4.287-1.965-5.716Z" transform="translate(-663.905 -371.905)" fill="#ffb9b9"/><path d="M806.7,485.389s4.287-9.416,6.609-10.067l6.073,1.493s-4.823,16.612-4.287,18.22,3.573,3.93,2.5,18.041c0,0,13.754,25.186,10.36,29.473s-16.076,7.5-16.255,6.252-5.895-20.542-5-26.437c0,0,0,25.544-1.072,26.079s-18.22,4.466-17.684,1.429,9.11-36.44,9.11-36.44l6.609-20.721.179-3.037s-2.858-1.965-.715-6.431,2.858-5.18,2.858-5.18l2.573-.483S806.159,484.139,806.7,485.389Z" transform="translate(-608.94 -385.851)" fill="#2f2e41"/><path d="M887.138,570.223l-2.144,4.644s-5.537,5.895-1.608,6.073,4.287-5.359,4.287-5.359l2.858-5.359Z" transform="translate(-679.737 -457.288)" fill="#ffb9b9"/><path d="M899.636,481.739h2.322s.715-1.072,1.429,3.394a67.355,67.355,0,0,1,.357,11.253l-1.072,8.931s-3.751-1.429-4.644-1.072,0-.179,0-.179l1.608-6.073-1.965-8.753Z" transform="translate(-691.52 -390.597)" fill="#2f2e41"/><path d="M855.6,423.754c-3.034.824-5.1,2.927-4.622,4.7a2.7,2.7,0,0,0,1.874,1.718l.849-1.053.039,1.278c.134.023.271.043.411.058l1.079-2.272.615,2.264a9.558,9.558,0,0,0,1.5-.282c3.034-.824,5.1-2.927,4.622-4.7S858.632,422.93,855.6,423.754Z" transform="translate(-656.348 -346.784)" fill="#2f2e41"/><ellipse cx="0.536" cy="0.893" rx="0.536" ry="0.893" transform="translate(203.918 81.943)" fill="#ffb9b9"/><ellipse cx="4.203" cy="1.854" rx="4.203" ry="1.854" transform="translate(182.076 162.687)" fill="#2f2e41"/><ellipse cx="5.636" cy="2.472" rx="5.636" ry="2.472" transform="translate(202.037 162.978) rotate(-21.513)" fill="#2f2e41"/><path d="M760.51,360.647a15.845,15.845,0,0,1-10.2-9.3c-3.18-8.449.559-20.365,11.113-35.414,12.891-18.382,13.591-24.558,11.909-26.5-2.129-2.46-8.808.871-8.875.9l-.223-.441c.289-.146,7.091-3.537,9.472-.787,2.616,3.022-1.381,12.143-11.877,27.111-5.719,8.155-9.458,15.476-11.111,21.757-1.341,5.093-1.323,9.531.053,13.192a15.331,15.331,0,0,0,9.854,9Z" transform="translate(-579.799 -244.871)" fill="#3f3d56"/><path d="M622.479,233H560.421V192.449h62.058Zm-61.564-.494h61.069V192.943H560.916Z" transform="translate(-437.683 -172.917)" fill="#3f3d56"/><circle cx="2.604" cy="2.604" r="2.604" transform="translate(145.979 39.976)" fill="#3f3d56"/><circle cx="2.604" cy="2.604" r="2.604" transform="translate(168.214 39.976)" fill="#3f3d56"/><path d="M686.58,327.7c0,.774-5.023,3-11.218,3s-11.218-2.23-11.218-3,5.023.2,11.218.2S686.58,326.924,686.58,327.7Z" transform="translate(-515.761 -274.502)" fill="#3f3d56"/><rect width="271.97" height="0.494" transform="translate(0 166.037)" fill="#3f3d56"/></g></g></svg>