<svg xmlns="http://www.w3.org/2000/svg" xmlns:xlink="http://www.w3.org/1999/xlink" width="250" height="200" viewBox="0 0 250 200"><defs><linearGradient id="a" y1="0.5" x2="1" y2="0.5" gradientUnits="objectBoundingBox"><stop offset="0" stop-color="gray" stop-opacity="0.251"/><stop offset="0.54" stop-color="gray" stop-opacity="0.122"/><stop offset="1" stop-color="gray" stop-opacity="0.102"/></linearGradient><clipPath id="c"><rect width="250" height="200"/></clipPath></defs><g id="b" clip-path="url(#c)"><g transform="translate(29.362 24.602)"><ellipse cx="33.526" cy="6.351" rx="33.526" ry="6.351" transform="translate(33.89 134.776)" fill="#222329" opacity="0.1"/><path d="M206.9,76.241c-12.322-.426-24.057-4.405-35.262-8.758S149.327,58.311,137.3,56.006c-7.735-1.483-16.582-1.694-22.813,2.448-6,4-7.937,10.88-8.978,17.271-.784,4.809-1.245,9.871.9,14.374,1.493,3.126,4.139,5.753,5.97,8.748,6.372,10.418,1.868,23.265-5.036,33.437-3.236,4.771-7,9.329-9.5,14.4s-3.655,10.907-1.468,16.1c2.167,5.14,7.332,8.994,12.927,11.707,11.364,5.512,24.75,7.088,37.812,7.983,28.906,1.976,57.964,1.121,86.945.263,10.726-.316,21.5-.638,32.049-2.3,5.86-.921,11.908-2.384,16.163-5.913a13.534,13.534,0,0,0,3.118-17.681c-6.069-9.424-22.846-11.764-27.093-21.875-2.334-5.567.063-11.766,3.457-16.927,7.28-11.074,19.482-20.79,20.123-33.446.442-8.693-5.424-17.4-14.494-21.513-9.506-4.312-22.69-3.77-29.7,3.368C230.466,73.793,217.775,76.62,206.9,76.241Z" transform="translate(-95.23 -55.03)" fill="#222329" opacity="0.1"/><path d="M377.538,201.715l-5.831-3.931h0l2.941-4.379-15.4-1.228-5.534,4.28-6.928-3.884-5.778.695-.069-1.523a42.982,42.982,0,0,0-.478-4.74c.025-.476.042-1.022.04-1.616,0-2.5-.339-5.822-1.828-8.034l.343-3.08-2.78-3.284a21,21,0,0,1,1.523-2.563c.1-.137.19-.27.293-.4a6.913,6.913,0,0,0,6.454-6.854,4.392,4.392,0,0,0-.019-.5,1.808,1.808,0,0,0-.021-.2c.352.19.708.381,1.064.571.067.1.143.19.227.3h0l.017.021.107.131.034.04c.038.046.078.089.118.135l.027.03c.1.112.208.227.322.339a.344.344,0,0,1,.038.036l.143.133.04.036c.122.109.251.213.381.312l.042.03.164.112.053.034c.063.038.128.078.19.114l.023.013c.074.04.15.078.227.114l.038.015.19.08.059.021c.067.023.131.044.2.063l.042.011c.084.021.168.038.253.051h.01a2.064,2.064,0,0,0,.244.025h.055a2.088,2.088,0,0,0,.219,0h.048a2.25,2.25,0,0,0,.272-.032,3,3,0,0,0,1.2-.43,1.048,1.048,0,0,0,.244-.227.9.9,0,0,0-.038-1.045h0c-.148-.354-1.112-.6-1.112-.6s-3.046-1.272-3.046-2.285-.762-6.267-8.622-7.469c0,0-5.114-.288-6.551,2.45l-.03.32c-.423.265-.773.8-1.19.952a1.944,1.944,0,0,0-.516.19v-.036h0a.491.491,0,0,0-.116.15,1.522,1.522,0,0,0-.158.571,2.152,2.152,0,0,1-.249.691,1.545,1.545,0,0,1-.114.175h0l-.032.051a1.39,1.39,0,0,0,.647-.1,3.223,3.223,0,0,1-.19.762.632.632,0,0,0,.586-.35v-.015l.025-.034a1.609,1.609,0,0,0,.118-.276l-.021.023c.038-.124.072-.249.114-.371a.582.582,0,0,1,.093-.19.461.461,0,0,1,.394-.131l-.078,1.651h.034a2.252,2.252,0,0,1-.167.347c-.27.438-.762.737-.942,1.217a1.789,1.789,0,0,0-.088.72c0,.143.017.287.029.43v-.011a1.606,1.606,0,0,1-.171,1.049c-.141.209-.367.367-.445.605a.59.59,0,0,0-.029.206,2.31,2.31,0,0,0,.129.611.027.027,0,0,0,0-.011.929.929,0,0,1,.032.449c-.086.381-.548.7-.525,1.062a.408.408,0,0,0,.021.141.771.771,0,0,0,.43.381,1.675,1.675,0,0,0,.967.213,1.271,1.271,0,0,0,.362-.124c-.133.307-.27.609-.409.9-.021.046-.044.091-.067.137,0,0-1.177-.786-1.845.817a3.554,3.554,0,0,0-.413,1.074,2.559,2.559,0,0,1-.141.442,2.842,2.842,0,0,1-1.272,1.142c-1.363.624-6.869,7.492-6.966,9.27a10.372,10.372,0,0,1-.35,2.052,12.212,12.212,0,0,0-.327,4.853,9.284,9.284,0,0,0,.337,1.548,34.68,34.68,0,0,1,.975,5.091l.632,5.753a16.362,16.362,0,0,0,.1,2.378c-.645.737-3.237,3.808-2.247,4.643a3.653,3.653,0,0,0,2.842.415,24.191,24.191,0,0,0-1.753,6.132c-.19,2.755.326,6.4,1.142,7.806s3.539,5,3.539,5-.128,4.931.845,6.722a19.6,19.6,0,0,1,1.365,5.508s.908,3.137.453,4.291.843,2.113-.52,2.88-3.107,18.06-3.107,18.06-.7,11.333,0,11.91a.715.715,0,0,0,.12.07v3.808s-.487.8,1.495.961c1.357.109,5.205.354,7.488.5l1.769.11s4.188.834,6.039,0,5.131-.815,4.643-3.018a6.271,6.271,0,0,0-.259-.881c-.535-1.367-1.443-1.523-3.117-1.9-.1-.021-.19-.04-.276-.055-1.763-.306-2.342.514-3.33-.554-.859-.923-3.593-1.957-4.523-2.285.023-.069.051-.135.074-.206a1.394,1.394,0,0,1-.706-.345l2.523.16,1.5.093s3.56.71,5.14,0,4.36-.691,3.945-2.563a5.378,5.378,0,0,0-.219-.75c-.455-1.161-1.228-1.289-2.65-1.611-.082-.017-.158-.034-.234-.048-1.5-.261-1.989.436-2.829-.47a13.018,13.018,0,0,0-3.808-1.934c0-.423-.571-1.024-.931-1.628-.423-.7.358-3.17.358-3.17l.445-10.229a1.974,1.974,0,0,1,.533-.152s2.014-1.923,1.559-3.971a13.161,13.161,0,0,1-.145-1.871,9.613,9.613,0,0,0,1.833-2.083c.423-.912,0-5.331,0-5.331v-16.9l3.37.341,3.058.314.931.1,3.057.308,7.027.71,6.332-1.2,2.74-.518,5.633-1.066V202.678ZM331.159,156.04l-.392-.042C330.9,156,331.034,156.029,331.159,156.04Z" transform="translate(-275.664 -132.843)" fill="url(#a)"/><path d="M495.766,434.448c-1.9,2.724-8.748,1.281-8.748,1.281l-5.3-4.963-.714-.672,1.2-2.543s.381.1,1.034.291C486.66,428.837,497.373,432.157,495.766,434.448Z" transform="translate(-407.56 -356.626)" fill="#efb7b9"/><path d="M483.227,427.841a11.169,11.169,0,0,1-1.514,2.924l-.714-.672,1.2-2.543S482.582,427.655,483.227,427.841Z" transform="translate(-407.56 -356.626)" opacity="0.1"/><path d="M377.343,278.08s-4.889,2.168-4.649,7.493a87.792,87.792,0,0,0,1.119,10.235s-1,8.013,3.162,10.079,8.013,3.764,8.013,3.764,6.511.7,7.32.99,3.337-4.135,2.871-4.824-6.443-2.134-7.2-3.284a6.358,6.358,0,0,0-2.523-1.86s-1.818-1.1-1.942-2.094a4.521,4.521,0,0,1,.478-2.17c.122-.436.43-4.645.43-4.645S386.472,276.78,377.343,278.08Z" transform="translate(-319.866 -235.548)" fill="#dce6f2"/><path d="M388.15,370.39s-6.707,1.123-6.058,3.471A14.22,14.22,0,0,1,388.15,370.39Z" transform="translate(-327.446 -310.349)" opacity="0.1"/><path d="M401.358,375.38s-3.688,3.01-2.966,3.164S401.358,375.38,401.358,375.38Z" transform="translate(-340.603 -314.388)" opacity="0.1"/><path d="M421.221,380.89s-.988,2.024-.381,1.887S421.221,380.89,421.221,380.89Z" transform="translate(-358.694 -318.85)" opacity="0.1"/><path d="M396.826,307.885l-.407-.116a1.164,1.164,0,0,0,.053-.832c-.466-.689-6.439-2.132-7.2-3.284a6.323,6.323,0,0,0-2.523-1.86s-1.818-1.1-1.942-2.094a4.521,4.521,0,0,1,.478-2.17c.122-.436.43-4.647.43-4.647s2.047-14.981-7.082-13.681c0,0-4.889,2.17-4.651,7.5a87.553,87.553,0,0,0,1.121,10.235s-1,8.013,3.162,10.079,8.013,3.764,8.013,3.764,6.509.7,7.32.99c.307.11.861-.459,1.4-1.241l.308.287,5.3,4.961s6.844,1.445,8.748-1.279C410.973,312.2,400.263,308.878,396.826,307.885Z" transform="translate(-320.911 -236.455)" opacity="0.1"/><path d="M377.5,168.784a1.619,1.619,0,0,0-.527.2c-.19.158-.19.428-.238.664a2.185,2.185,0,0,1-.381.91,1.368,1.368,0,0,0,.634-.1,3.264,3.264,0,0,1-.19.762.617.617,0,0,0,.571-.348,3.667,3.667,0,0,0,.238-.668.55.55,0,0,1,.091-.19c.175-.208.5-.114.771-.088a1.266,1.266,0,0,0,1.158-.556c.288-.436.3-1.552-.381-1.67C378.526,167.58,378.081,168.567,377.5,168.784Z" transform="translate(-322.833 -146.238)" fill="#965d7b"/><g transform="translate(53.545 22.7)" opacity="0.1"><path d="M378.221,174.534c.017-.093.029-.19.049-.284h0a1.117,1.117,0,0,0-.238.664,2.1,2.1,0,0,1-.112.4A2.183,2.183,0,0,0,378.221,174.534Z" transform="translate(-377.65 -174.25)"/><path d="M377.132,180.762a3.163,3.163,0,0,0,.19-.762,1.363,1.363,0,0,1-.6.1,2.2,2.2,0,0,1-.219.381,1.355,1.355,0,0,0,.632-.1,3.165,3.165,0,0,1-.19.762.619.619,0,0,0,.571-.348,1.421,1.421,0,0,0,.114-.272A.571.571,0,0,1,377.132,180.762Z" transform="translate(-376.5 -178.905)"/><path d="M384.73,175.216c-.27-.027-.6-.12-.773.088a.588.588,0,0,0-.091.19c-.017.049-.032.1-.046.152.181-.143.474-.067.72-.042a1.272,1.272,0,0,0,1.158-.556,1.055,1.055,0,0,0,.128-.3A1.268,1.268,0,0,1,384.73,175.216Z" transform="translate(-382.426 -174.655)"/></g><path d="M313.054,201l2.9,3.492-.379,3.524-3.509-5.493Z" transform="translate(-252.661 -162.731)" fill="#dce6f2"/><path d="M315.956,204.492l-.356,3.315-.023.209-3.166-4.958-.341-.535.1-.154.883-1.369.2.236Z" transform="translate(-252.661 -162.731)" opacity="0.1"/><path d="M384.486,209.381a5.821,5.821,0,0,0-2.738,2.424,20.681,20.681,0,0,0-1.477,2.54c-.268.537-.5,1.053-.7,1.5l-.137.32c-.331.782-.516,1.306-.516,1.306s-7.52-5.654-6.33-6.035c.4-.128.925-.984,1.445-2.064l.065-.137c.329-.693.653-1.466.94-2.193.588-1.495,1.024-2.793,1.024-2.793S387.485,208.524,384.486,209.381Z" transform="translate(-319.684 -175.839)" fill="#efb7b9"/><path d="M459.26,202.58s1.736,3.141,4.068,2.713,1.373-1.687,1.373-1.687Z" transform="translate(-389.959 -174.486)" fill="#444053"/><path d="M382.116,742.2c-1.538.7-5.017,0-5.017,0l-1.466-.091c-1.9-.122-5.091-.328-6.218-.419-1.645-.135-1.241-.809-1.241-.809v-4.072l7.981-2.022s3.155,1.079,4.019,2.022c.821.9,1.3.207,2.764.466.072.013.148.029.228.048,1.39.318,2.144.444,2.589,1.6a5.348,5.348,0,0,1,.215.742C386.382,741.518,383.652,741.5,382.116,742.2Z" transform="translate(-316.178 -605.374)" fill="#a36468"/><path d="M385.756,749.5a5.966,5.966,0,0,1-.9.461c-1.047.478-2.043,1.06-3.1,1.512a7.254,7.254,0,0,1-3.345.687,4.99,4.99,0,0,0-1.786-.019,4.121,4.121,0,0,0-.992.55c-1.9-.122-5.091-.328-6.218-.419-1.645-.135-1.241-.809-1.241-.809v-.476c.059,0,.126-.017.2-.023a3.593,3.593,0,0,1,1.161.173c.826.225,1.649.445,2.475.666a1.955,1.955,0,0,1,.952-1.215,3.034,3.034,0,0,1,1.535-.352c1.281.017,2.494.624,3.773.685a2.079,2.079,0,0,0,1.045-.175c.175-.088.329-.215.5-.312a3.653,3.653,0,0,1,.862-.291,18.984,18.984,0,0,0,2.465-.8c.228-.089.495-.251.465-.5-.04-.324-.548-.362-.682-.659a.381.381,0,0,1,.015-.337c.072.013.148.029.228.048C384.556,748.226,385.31,748.351,385.756,749.5Z" transform="translate(-316.178 -615.955)" opacity="0.1"/><path d="M363.082,783.425c-1.809.826-5.9,0-5.9,0l-1.723-.1c-2.231-.143-5.989-.381-7.316-.493-1.936-.16-1.46-.952-1.46-.952v-4.8l9.392-2.38s3.712,1.27,4.729,2.38c.965,1.056,1.523.244,3.254.548.086.015.175.034.268.055,1.635.381,2.522.523,3.046,1.879a6.114,6.114,0,0,1,.253.874C368.094,782.618,364.89,782.6,363.082,783.425Z" transform="translate(-298.77 -637.685)" fill="#a36468"/><path d="M367.365,792.055a7.088,7.088,0,0,1-1.057.542c-1.232.562-2.4,1.247-3.65,1.778a8.556,8.556,0,0,1-3.937.809,5.745,5.745,0,0,0-2.094-.023,4.852,4.852,0,0,0-1.171.655c-2.231-.143-5.989-.381-7.316-.493-1.936-.16-1.46-.952-1.46-.952v-.56a2.378,2.378,0,0,1,.238-.027,4.179,4.179,0,0,1,1.367.2l2.911.784a2.3,2.3,0,0,1,1.129-1.43,3.554,3.554,0,0,1,1.807-.415c1.508.021,2.934.735,4.44.807a2.459,2.459,0,0,0,1.226-.2c.207-.1.381-.255.59-.367a4.145,4.145,0,0,1,1.015-.343,22.779,22.779,0,0,0,2.886-.937c.268-.106.583-.3.546-.582-.048-.381-.645-.427-.8-.777a.459.459,0,0,1,.019-.4c.086.015.175.034.268.055C365.954,790.551,366.842,790.7,367.365,792.055Z" transform="translate(-298.77 -650.178)" opacity="0.1"/><path d="M385.019,647.54l-.508,11.962s-.762,2.443-.348,3.141,1.11,1.4.857,1.809-3.3,4.879-4.284,3.166-1.955-9.138-1.955-9.138l.908-9.171Z" transform="translate(-324.801 -534.734)" fill="#444053"/><path d="M410.986,491l1.413,1.889v16.426s.413,4.379,0,5.283a14.181,14.181,0,0,1-2.507,2.713l-1.761-9.043.381-9.567Z" transform="translate(-348.563 -407.997)" fill="#444053"/><path d="M385.019,647.54l-.508,11.962s-.762,2.443-.348,3.141,1.11,1.4.857,1.809-3.3,4.879-4.284,3.166-1.955-9.138-1.955-9.138l.908-9.171Z" transform="translate(-324.801 -534.734)" opacity="0.1"/><path d="M410.986,491l1.413,1.889v16.426s.413,4.379,0,5.283a14.181,14.181,0,0,1-2.507,2.713l-1.761-9.043.381-9.567Z" transform="translate(-348.563 -407.997)" opacity="0.1"/><path d="M346.714,434.769v8.885l-1.586,6.917s-.508,16.691-.065,18.72-1.523,3.935-1.523,3.935-1.142.128-1.142,1.015-1.9,3.427-1.9,3.427l.063,4.95s.826,9.266-.444,11.042.444,2.031.444,2.031c-1.586,5.2-9.2,4-9.888,3.427s0-11.8,0-11.8,1.7-17.134,3.035-17.9.065-1.713.508-2.856-.444-4.251-.444-4.251a19.594,19.594,0,0,0-1.333-5.458c-.952-1.776-.826-6.663-.826-6.663s-2.665-3.554-3.457-4.95-1.3-5.013-1.112-7.743a24.328,24.328,0,0,1,1.713-6.077c.3-.741.508-1.22.508-1.22l.181.048,10.4,2.722Z" transform="translate(-282.879 -358.772)" fill="#444053"/><path d="M395.441,209.324a5.821,5.821,0,0,0-2.738,2.424h-.213a6.8,6.8,0,0,1-5.9-3.414,6.694,6.694,0,0,1-.6-1.361c.588-1.495,1.024-2.793,1.024-2.793S398.439,208.467,395.441,209.324Z" transform="translate(-330.638 -175.782)" opacity="0.1"/><path d="M397.992,177.234a6.806,6.806,0,1,1-12.733-3.335,6.65,6.65,0,0,1,.72-1.039,6.888,6.888,0,0,1,1.565-1.375,6.806,6.806,0,0,1,10.439,5.251C397.986,176.9,397.992,177.069,397.992,177.234Z" transform="translate(-329.334 -148.452)" fill="#efb7b9"/><path d="M382.622,242.118l-.023.209-3.166-4.95c-.331.782-.516,1.306-.516,1.306s-7.52-5.662-6.33-6.043c.4-.128.925-.984,1.445-2.064l.065-.137c.552,1.645,3.76,4.933,5.095,6.25.154.152.282.278.381.369l.2.19.107.107C380.368,237.857,382.417,240.066,382.622,242.118Z" transform="translate(-319.684 -197.042)" opacity="0.1"/><path d="M342.91,258.678l-.346,11.151-.061,1.986s-4.1-.381-7.935-.8a51.679,51.679,0,0,1-6.439-.914,12.116,12.116,0,0,0-2.761-.607c-.746-.1-1.333-.154-1.333-.154s-.219.065-.556.126a3.531,3.531,0,0,1-2.778-.411c-.961-.836,1.565-3.872,2.2-4.6l.139-.158-.238-2.2-.619-5.7a34.786,34.786,0,0,0-.952-5.045,9.305,9.305,0,0,1-.329-1.533,12.276,12.276,0,0,1,.32-4.809,10.489,10.489,0,0,0,.343-2.035c.1-1.761,5.473-8.567,6.806-9.186a2.825,2.825,0,0,0,1.363-1.359,2.6,2.6,0,0,0,.207-.592c.571-2.475,2.016-1.493,2.016-1.493.348,1.936,5.742,7.061,5.742,7.061l.107.107c.535.548,2.919,3.122,2.749,5.319a6.448,6.448,0,0,0,.36,2.406,40.7,40.7,0,0,1,1.875,10.661Z" transform="translate(-277.605 -196.807)" fill="#dce6f2"/><path d="M387.5,310.45s-1.333,3.237-2.332,3.76S387.974,315.314,387.5,310.45Z" transform="translate(-329.835 -261.82)" opacity="0.1"/><path d="M390.426,342.2s-3.046.381-3.046.952S390.426,342.2,390.426,342.2Z" transform="translate(-331.763 -287.525)" opacity="0.1"/><path d="M395.412,361.7s-4.426,9.424-5.664,9.71S395.412,361.7,395.412,361.7Z" transform="translate(-333.561 -303.313)" opacity="0.1"/><path d="M376.08,239.46l-3.661,1.592L368,234.377a2.6,2.6,0,0,0,.208-.592c.571-2.475,2.016-1.493,2.016-1.493.348,1.936,5.742,7.061,5.742,7.061Z" transform="translate(-316.073 -198.386)" opacity="0.1"/><path d="M377.08,237.46l-3.661,1.592L369,232.377a2.6,2.6,0,0,0,.208-.592c.571-2.475,2.016-1.493,2.016-1.493.348,1.936,5.742,7.061,5.742,7.061Z" transform="translate(-316.883 -196.767)" fill="#dce6f2"/><path d="M350.916,321.754s-4.1-.381-7.935-.8l6.873,1.8v2.094c-.3.272-.562.413-.731.341-.792-.333-7.255-1.38-7.255-1.38s-3.754-1.9-7.806-4.188a3.117,3.117,0,0,1-.286-.179,4.5,4.5,0,0,1-1.2-1.2,8.525,8.525,0,0,1-1.272-3.84,16.6,16.6,0,0,1-.1-2.357,19.326,19.326,0,0,1,.244-2.663,87.6,87.6,0,0,1-.571-10.281c.048-5.331,5.045-7.234,5.045-7.234,9.186-.809,6.338,14.041,6.338,14.041s-.531,4.188-.676,4.617a4.519,4.519,0,0,0-.594,2.142c.07,1,1.826,2.2,1.826,2.2a6.41,6.41,0,0,1,2.42,1.993c.514.878,3.853,2.068,5.74,2.917Z" transform="translate(-286.018 -246.747)" opacity="0.1"/><path d="M397.251,169.241a2.156,2.156,0,0,1-.19.91,5.636,5.636,0,0,1-.339.678,3.123,3.123,0,0,1-.834,1.036,4.266,4.266,0,0,1-1.523.529,2.2,2.2,0,0,0-1.376.781,2.73,2.73,0,0,0-.322.933,2.006,2.006,0,0,1-.381.9.748.748,0,0,1-.891.213.9.9,0,0,1-.345-.444,6.363,6.363,0,0,1-.36-1.559,3.318,3.318,0,0,0-.535-1.494,1.338,1.338,0,0,0-1.4-.539,1.353,1.353,0,0,0-.762.739,4.23,4.23,0,0,0-.287,1.051q-.354,1.938-.836,3.853a.354.354,0,0,1-.063.145.274.274,0,0,1-.19.08c-.426.057-.836-.242-1.266-.209a.73.73,0,0,0-.131.021,6.8,6.8,0,0,1,.687-7.768l.034-.01a2.052,2.052,0,0,0,.762-.48,8.038,8.038,0,0,0,.762-.881l.152-.19a8.683,8.683,0,0,1,1.485-1.411,1.523,1.523,0,0,1,.506-.274,1.5,1.5,0,0,1,.48-.015,12.1,12.1,0,0,0,1.982.074,12.719,12.719,0,0,1,1.392-.141,4.284,4.284,0,0,1,2.995,1.818A2.816,2.816,0,0,1,397.251,169.241Z" transform="translate(-329.277 -144.684)" opacity="0.1"/><path d="M375.977,169.527c-.265.434-.742.729-.921,1.205-.263.691.181,1.552-.227,2.168-.135.208-.358.362-.434.6-.129.4.225.83.133,1.243s-.636.762-.491,1.165a.762.762,0,0,0,.419.381,1.637,1.637,0,0,0,.952.211c.52-.086.906-.6,1.434-.634.428-.03.838.267,1.264.211a.286.286,0,0,0,.19-.082.33.33,0,0,0,.063-.145q.48-1.913.838-3.853a4.153,4.153,0,0,1,.286-1.051,1.365,1.365,0,0,1,.762-.739,1.343,1.343,0,0,1,1.4.539,3.3,3.3,0,0,1,.537,1.494,6.449,6.449,0,0,0,.358,1.559.91.91,0,0,0,.347.445.746.746,0,0,0,.889-.213,1.986,1.986,0,0,0,.381-.9,2.719,2.719,0,0,1,.322-.931,2.209,2.209,0,0,1,1.376-.781,4.308,4.308,0,0,0,1.523-.531,3.134,3.134,0,0,0,.834-1.034,3.044,3.044,0,0,0,.522-1.59,2.919,2.919,0,0,0-.781-1.647,4.279,4.279,0,0,0-3-1.816,11.842,11.842,0,0,0-1.392.141,11.914,11.914,0,0,1-1.982-.076,1.556,1.556,0,0,0-.48.017,1.435,1.435,0,0,0-.5.274,8.687,8.687,0,0,0-1.487,1.409,10.917,10.917,0,0,1-.918,1.066,2.065,2.065,0,0,1-.762.482c-.19.053-.381.015-.562.074C376.312,168.364,376.237,169.1,375.977,169.527Z" transform="translate(-320.941 -143.899)" fill="#965d7b"/><path d="M463.328,205.291c-1.523.28-2.785-.952-3.484-1.85a7.462,7.462,0,0,1-.584-.861l5.228.986.211.04S465.661,204.865,463.328,205.291Z" transform="translate(-389.959 -174.486)" opacity="0.1"/><g transform="translate(53.062 24.175)" opacity="0.1"><path d="M376.03,211.061a1.585,1.585,0,0,0-.11-.731c0,.019-.017.038-.023.057a1.417,1.417,0,0,0,.1.784A.564.564,0,0,0,376.03,211.061Z" transform="translate(-375.505 -204.936)"/><path d="M379.05,197.8a4.229,4.229,0,0,0,.015.79A4.242,4.242,0,0,0,379.05,197.8Z" transform="translate(-378.073 -194.792)"/><path d="M388.163,183.228a3.123,3.123,0,0,1-.834,1.036,4.253,4.253,0,0,1-1.523.529,2.2,2.2,0,0,0-1.376.781,2.742,2.742,0,0,0-.322.933,1.994,1.994,0,0,1-.381.9.743.743,0,0,1-.889.213.91.91,0,0,1-.346-.445,6.339,6.339,0,0,1-.358-1.559,3.29,3.29,0,0,0-.537-1.494,1.338,1.338,0,0,0-1.405-.539,1.359,1.359,0,0,0-.762.739,4.148,4.148,0,0,0-.286,1.051q-.356,1.94-.838,3.853a.329.329,0,0,1-.063.145.285.285,0,0,1-.19.082c-.426.055-.836-.242-1.264-.211-.527.038-.914.548-1.434.632a1.609,1.609,0,0,1-.952-.211,1.018,1.018,0,0,1-.348-.248.514.514,0,0,0-.07.444.742.742,0,0,0,.419.381,1.609,1.609,0,0,0,.952.211c.52-.084.906-.594,1.434-.632.428-.03.838.267,1.264.211a.286.286,0,0,0,.19-.082.329.329,0,0,0,.063-.145q.48-1.9.838-3.853a4.149,4.149,0,0,1,.286-1.051,1.359,1.359,0,0,1,.762-.739,1.339,1.339,0,0,1,1.405.539,3.3,3.3,0,0,1,.537,1.495,6.447,6.447,0,0,0,.358,1.559.91.91,0,0,0,.346.445.746.746,0,0,0,.889-.213,2,2,0,0,0,.381-.9,2.742,2.742,0,0,1,.322-.933,2.218,2.218,0,0,1,1.376-.781,4.342,4.342,0,0,0,1.523-.529,3.123,3.123,0,0,0,.834-1.036,3.031,3.031,0,0,0,.522-1.588,2.062,2.062,0,0,0-.023-.217A3.742,3.742,0,0,1,388.163,183.228Z" transform="translate(-373.964 -182)"/></g><path d="M400.842,173.919a6.726,6.726,0,0,1,.847,2.827c-1.7-.952-3.292-2-4.1-2.361-1.4-.634-6.65-.539-8.622-.48a6.651,6.651,0,0,1,.72-1.039,6.887,6.887,0,0,1,1.571-1.375,6.81,6.81,0,0,1,9.591,2.424Z" transform="translate(-333.051 -148.458)" opacity="0.1"/><path d="M463.8,204.484c-.916.282-2.41-.263-3.96-1.043a7.462,7.462,0,0,1-.584-.861l5.228.986C464.834,203.8,464.922,204.139,463.8,204.484Z" transform="translate(-389.959 -174.486)" opacity="0.1"/><path d="M392.126,154.043s-5-.286-6.4,2.427l-.227,2.4-.381-.042-.076,1.635s7.638-.333,9.376.451,7.139,4.737,9.3,4.07-.19-1.285-.19-1.285-2.979-1.262-2.979-2.252S399.812,155.233,392.126,154.043Z" transform="translate(-329.869 -135.183)" fill="#444053"/><path d="M371.63,622.28s3.189,3.094,4.569,2.856C376.2,625.136,372.3,624.8,371.63,622.28Z" transform="translate(-319.012 -514.283)" opacity="0.1"/><path d="M368.13,629.81s.286,1.592,1.047,1.435S368.13,629.81,368.13,629.81Z" transform="translate(-316.178 -520.38)" opacity="0.1"/><path d="M378.005,769.53s-4.527,3.522-3.764,3.617S378.005,769.53,378.005,769.53Z" transform="translate(-321.056 -633.5)" opacity="0.1"/><path d="M330.96,337.185l14.659-2.385v13.879l-13.928-.729Z" transform="translate(-267.955 -271.058)" fill="#222329"/><path d="M330.96,337.185l14.659-2.385v13.879l-13.928-.729Z" transform="translate(-267.955 -271.058)" opacity="0.05"/><path d="M407.96,334.8l17.58,1.316-.973,12.078-16.607.485Z" transform="translate(-330.295 -271.058)" fill="#222329"/><path d="M407.96,334.8l17.58,1.316-.973,12.078-16.607.485Z" transform="translate(-330.295 -271.058)" opacity="0.1"/><path d="M413.365,312.55l-5.4,4.236,17.58,1.316,2.873-4.335Z" transform="translate(-330.295 -253.044)" fill="#222329"/><path d="M303.08,316.2l13.2-1.607,6.77,3.848-14.659,2.385Z" transform="translate(-245.382 -254.695)" fill="#222329"/><path d="M348.833,348.548v18.975l-6.867-.7-2.987-.3-.91-.1-2.985-.307-4.124-.423V347.33l14.658,1Z" transform="translate(-267.955 -281.202)" fill="#222329"/><path d="M439.206,341.71v18.505l-5.5,1.057-2.677.514-6.185,1.188V344Z" transform="translate(-343.962 -276.652)" fill="#222329"/><path d="M439.206,341.71v18.505l-5.5,1.057-2.677.514-6.185,1.188V344Z" transform="translate(-343.962 -276.652)" opacity="0.05"/><path d="M303.08,351.324l5.308-3.994,17.873,1.218-2.631,4.432Z" transform="translate(-245.382 -281.202)" fill="#222329"/><path d="M303.08,351.324l5.308-3.994,17.873,1.218-2.631,4.432Z" transform="translate(-245.382 -281.202)" fill="#fff" opacity="0.1"/><path d="M439.206,341.71,424.84,344l4.676,4.188,15.389-2.582Z" transform="translate(-343.962 -276.652)" fill="#222329"/><path d="M439.206,341.71,424.84,344l4.676,4.188,15.389-2.582Z" transform="translate(-343.962 -276.652)" fill="#fff" opacity="0.1"/><path d="M460.007,427.142l-2.677.514V423.7l2.507-.632Z" transform="translate(-370.266 -342.523)" fill="#fff" opacity="0.1"/><path d="M376.067,435.96v2.616l-2.987-.3V435.96Z" transform="translate(-302.056 -352.959)" fill="#fff" opacity="0.1"/><path d="M355.605,440.29v1.392l-2.985-.306V440.29Z" transform="translate(-285.491 -356.464)" fill="#fff" opacity="0.1"/><path d="M448.929,451.315c-2.047,2.618-8.805.809-8.805.809l-5.022-5.239-.682-.71,1.333-2.475s.381.126,1.017.346C440.135,445.223,450.652,449.113,448.929,451.315Z" transform="translate(-369.848 -369.702)" opacity="0.1"/><path d="M447.929,449.315c-2.047,2.618-8.805.809-8.805.809l-5.022-5.239-.682-.71,1.333-2.475s.381.126,1.017.347C439.135,443.223,449.652,447.113,447.929,449.315Z" transform="translate(-369.038 -368.082)" fill="#efb7b9"/><path d="M435.729,442.047a11.257,11.257,0,0,1-1.668,2.839l-.682-.71,1.333-2.475S435.1,441.826,435.729,442.047Z" transform="translate(-369.006 -368.082)" opacity="0.1"/><path d="M336.923,287.861s-5,1.9-5.045,7.234a87.589,87.589,0,0,0,.571,10.281s-1.428,7.948,2.618,10.233,7.806,4.188,7.806,4.188,6.463,1.047,7.257,1.38,3.553-3.95,3.124-4.664-6.313-2.475-7.012-3.665a6.34,6.34,0,0,0-2.42-1.991s-1.755-1.2-1.826-2.2a4.5,4.5,0,0,1,.594-2.142c.147-.428.678-4.617.678-4.617S346.109,287.043,336.923,287.861Z" transform="translate(-286.828 -243.505)" fill="#dce6f2"/><path d="M343.742,380.7s-6.759.761-6.235,3.141A14.219,14.219,0,0,1,343.742,380.7Z" transform="translate(-291.362 -318.696)" opacity="0.1"/><path d="M356.695,385.7s-3.836,2.808-3.132,3S356.695,385.7,356.695,385.7Z" transform="translate(-304.314 -322.744)" opacity="0.1"/><path d="M376.55,391.7s-1.095,1.969-.476,1.866S376.55,391.7,376.55,391.7Z" transform="translate(-322.457 -327.602)" opacity="0.1"/><path d="M721.537,167.38s-7.234-.436-6.389,4.64a1.238,1.238,0,0,0,.643,1.3s.013-.381.742-.249a3.332,3.332,0,0,0,.786.038,1.631,1.631,0,0,0,.963-.4h0s2.035-.84,2.827-4.167c0,0,.586-.727.571-.914l-1.222.524a2.19,2.19,0,0,1,.088,1.614s-.038-1.582-.274-1.546c-.048,0-.634.307-.634.307a3.611,3.611,0,0,1,.175,2.652s.206-1.892-.4-2.542l-.861.5a3.8,3.8,0,0,1,.27,2.88s.147-1.986-.451-2.759l-.781.607a3.716,3.716,0,0,1,.308,2.639s-.063-2.311-.478-2.486a4.712,4.712,0,0,0-.784.849s.539,1.142.2,1.734c0,0-.206-1.54-.381-1.548a5.124,5.124,0,0,0-.75,1.713,3.7,3.7,0,0,1,.584-1.816,2.039,2.039,0,0,0-1.039.539s.1-.722,1.207-.784a5.213,5.213,0,0,1,.712-.822,4.463,4.463,0,0,0-1.761.2,2,2,0,0,1,1.963-.381l.762-.628a6.569,6.569,0,0,0-2.056.021,2.5,2.5,0,0,1,2.264-.164l.838-.5a7.521,7.521,0,0,0-1.963-.169,3.011,3.011,0,0,1,2.208.034l.6-.268s-.9-.177-1.165-.206-.278-.1-.278-.1a3.115,3.115,0,0,1,1.693.19A7.466,7.466,0,0,0,721.537,167.38Z" transform="translate(-597.075 -145.98)" fill="#222329"/><path d="M837,300.72s-7.235-.436-6.389,4.64a1.238,1.238,0,0,0,.644,1.3s.013-.381.744-.249a3.332,3.332,0,0,0,.786.038,1.629,1.629,0,0,0,.952-.4h0s2.037-.841,2.829-4.169c0,0,.585-.725.562-.912l-1.222.522a2.2,2.2,0,0,1,.089,1.614s-.04-1.582-.274-1.546c-.048,0-.636.307-.636.307a3.609,3.609,0,0,1,.177,2.652s.206-1.892-.4-2.542l-.851.5a3.8,3.8,0,0,1,.27,2.88s.147-1.986-.451-2.759l-.779.609a3.721,3.721,0,0,1,.308,2.637s-.063-2.311-.478-2.486a4.772,4.772,0,0,0-.786.849s.541,1.142.206,1.734c0,0-.206-1.54-.381-1.548a5.123,5.123,0,0,0-.75,1.713,3.716,3.716,0,0,1,.586-1.816,2.047,2.047,0,0,0-1.041.539s.107-.722,1.209-.784a4.757,4.757,0,0,1,.712-.822,4.463,4.463,0,0,0-1.761.2,1.978,1.978,0,0,1,1.961-.371l.762-.628a6.572,6.572,0,0,0-2.056.021,2.5,2.5,0,0,1,2.264-.164l.838-.5a7.631,7.631,0,0,0-1.965-.169,3.018,3.018,0,0,1,2.21.034l.6-.268s-.9-.177-1.167-.206-.278-.1-.278-.1a3.121,3.121,0,0,1,1.694.19A7.682,7.682,0,0,0,837,300.72Z" transform="translate(-690.553 -253.935)" fill="#222329" opacity="0.1"/><path d="M612.612,246.66s1.666-7.061-3.482-7.086a1.237,1.237,0,0,0-1.394.411s.367.078.118.775a3.39,3.39,0,0,0-.171.762,1.635,1.635,0,0,0,.227,1.015h0s.482,2.151,3.617,3.5c0,0,.617.7.8.708l-.3-1.293a2.187,2.187,0,0,1-1.607-.19s1.567.23,1.569,0c0-.048-.19-.678-.19-.678a3.614,3.614,0,0,1-2.644-.28s1.83.525,2.574.04l-.343-.937a3.8,3.8,0,0,1-2.886-.225s1.932.484,2.8.027l-.466-.872a3.72,3.72,0,0,1-2.652-.147s2.285.331,2.532-.046a4.727,4.727,0,0,0-.7-.92s-1.211.339-1.744-.093c0,0,1.552.059,1.588-.1a5.133,5.133,0,0,0-1.567-1.034,3.732,3.732,0,0,1,1.693.887,2.055,2.055,0,0,0-.354-1.118s.693.228.571,1.333a4.742,4.742,0,0,1,.687.841,4.479,4.479,0,0,0,.1-1.771,1.979,1.979,0,0,1,.032,2l.487.866a6.318,6.318,0,0,0,.329-2.029,2.5,2.5,0,0,1-.225,2.258l.352.912a7.622,7.622,0,0,0,.5-1.9,3.009,3.009,0,0,1-.411,2.172l.164.636s.328-.859.4-1.114.147-.257.147-.257a3.119,3.119,0,0,1-.474,1.637A7.564,7.564,0,0,0,612.612,246.66Z" transform="translate(-510.117 -204.381)" fill="#222329" opacity="0.1"/><path d="M515.388,281.953s-5.811-4.346-7.888.362a1.239,1.239,0,0,0-.179,1.443s.217-.307.762.2a3.332,3.332,0,0,0,.636.465,1.634,1.634,0,0,0,1.022.19h0s2.163.417,4.653-1.927c0,0,.889-.286.973-.453l-1.312-.23a2.2,2.2,0,0,1-.813,1.4s.836-1.344.619-1.441c-.044-.021-.7-.1-.7-.1a3.612,3.612,0,0,1-1.31,2.313s1.213-1.468,1.062-2.344l-1-.053a3.8,3.8,0,0,1-1.357,2.557,5.435,5.435,0,0,0,1.142-2.553l-.986.08a3.71,3.71,0,0,1-1.192,2.37s1.217-1.965.967-2.338a4.786,4.786,0,0,0-1.123.276s-.173,1.245-.782,1.561c0,0,.676-1.4.539-1.5a5.118,5.118,0,0,0-1.573,1.022,3.718,3.718,0,0,1,1.489-1.2,2.051,2.051,0,0,0-1.165-.122s.484-.544,1.439.01a4.806,4.806,0,0,1,1.047-.3,4.456,4.456,0,0,0-1.584-.8,1.982,1.982,0,0,1,1.845.762l.988-.1a6.52,6.52,0,0,0-1.729-1.112s.92-.116,1.98,1.106l.975.044a7.6,7.6,0,0,0-1.546-1.222,3.01,3.01,0,0,1,1.826,1.243l.649.1s-.657-.643-.862-.811-.177-.238-.177-.238a3.128,3.128,0,0,1,1.312,1.089A7.7,7.7,0,0,0,515.388,281.953Z" transform="translate(-428.737 -237.267)" fill="#222329" opacity="0.1"/><path d="M617,69.839s-5.81-4.348-7.888.362a1.239,1.239,0,0,0-.179,1.443s.217-.307.761.2a3.391,3.391,0,0,0,.638.463,1.632,1.632,0,0,0,1.022.19h0s2.163.417,4.653-1.929c0,0,.889-.284.971-.453l-1.312-.227a2.19,2.19,0,0,1-.813,1.4s.838-1.344.621-1.441c-.044-.021-.7-.1-.7-.1a3.629,3.629,0,0,1-1.317,2.313s1.211-1.468,1.062-2.344l-1-.053a3.8,3.8,0,0,1-1.357,2.555,5.435,5.435,0,0,0,1.142-2.553l-.984.08a3.719,3.719,0,0,1-1.194,2.372s1.218-1.965.969-2.338a4.787,4.787,0,0,0-1.123.276s-.173,1.245-.782,1.561c0,0,.676-1.4.539-1.5a5.138,5.138,0,0,0-1.573,1.024,3.7,3.7,0,0,1,1.489-1.2,2.037,2.037,0,0,0-1.167-.122s.486-.544,1.441.01a4.7,4.7,0,0,1,1.047-.3,4.479,4.479,0,0,0-1.584-.8,1.985,1.985,0,0,1,1.843.762l.988-.1a6.528,6.528,0,0,0-1.729-1.114s.92-.114,1.982,1.108l.975.042a7.519,7.519,0,0,0-1.548-1.22,3.011,3.011,0,0,1,1.828,1.243l.647.1s-.659-.636-.864-.8-.177-.236-.177-.236a3.122,3.122,0,0,1,1.312,1.089A8.221,8.221,0,0,0,617,69.839Z" transform="translate(-511.002 -65.536)" fill="#222329" opacity="0.1"/><path d="M736.009,86.128s-2.323-6.875-6.7-4.173a1.251,1.251,0,0,0-.965,1.087s.352-.129.508.594a3.423,3.423,0,0,0,.261.744,1.648,1.648,0,0,0,.731.741h0s1.546,1.571,4.927,1.051c0,0,.893.27,1.057.177l-.952-.935a2.19,2.19,0,0,1-1.462.689s1.453-.632,1.333-.836c-.025-.04-.522-.472-.522-.472a3.618,3.618,0,0,1-2.391,1.161s1.83-.522,2.2-1.333l-.788-.607a3.794,3.794,0,0,1-2.568,1.333s1.9-.611,2.386-1.456L732.2,83.4a3.684,3.684,0,0,1-2.326,1.277S732,83.75,732,83.3a4.76,4.76,0,0,0-1.081-.409s-.849.927-1.523.843c0,0,1.348-.771,1.291-.929a5.108,5.108,0,0,0-1.875-.048,3.71,3.71,0,0,1,1.9-.143,2.054,2.054,0,0,0-.893-.762s.708-.173,1.182.824a4.792,4.792,0,0,1,1.028.35,4.476,4.476,0,0,0-.851-1.555,1.983,1.983,0,0,1,1.083,1.679l.872.476a6.425,6.425,0,0,0-.794-1.9s.824.426,1,2.035l.781.588a7.565,7.565,0,0,0-.583-1.885,3.014,3.014,0,0,1,.8,2.062l.474.453s-.175-.9-.247-1.158-.013-.272-.013-.272a3.14,3.14,0,0,1,.463,1.641A7.583,7.583,0,0,0,736.009,86.128Z" transform="translate(-607.811 -76.317)" fill="#222329" opacity="0.1"/><path d="M660.7,108.135s-7.216-.8-6.62,4.316a1.236,1.236,0,0,0,.571,1.333s.032-.381.762-.209a3.5,3.5,0,0,0,.784.078,1.637,1.637,0,0,0,.98-.348h0s2.077-.737,3.046-4.021c0,0,.621-.695.607-.883l-1.247.461a2.123,2.123,0,0,1,0,1.616s.04-1.582-.19-1.557c-.048,0-.649.274-.649.274a3.631,3.631,0,0,1,.042,2.665s.3-1.881-.272-2.559l-.885.457a3.784,3.784,0,0,1,.124,2.892s.248-1.976-.31-2.778l-.809.571a3.717,3.717,0,0,1,.173,2.65s.055-2.311-.35-2.507a4.954,4.954,0,0,0-.828.807s.482,1.161.118,1.742c0,0-.128-1.548-.3-1.563a5.12,5.12,0,0,0-.838,1.679,3.707,3.707,0,0,1,.678-1.786,2.048,2.048,0,0,0-1.066.485s.141-.714,1.245-.722c0,0,.6-.744.762-.784a4.476,4.476,0,0,0-1.771.114,1.975,1.975,0,0,1,1.978-.272l.8-.588a6.174,6.174,0,0,0-2.062-.1,2.479,2.479,0,0,1,2.269-.048l.863-.459a7.582,7.582,0,0,0-1.953-.268,2.99,2.99,0,0,1,2.2.147l.613-.238s-.893-.223-1.156-.265-.272-.114-.272-.114a3.132,3.132,0,0,1,1.683.274A7.786,7.786,0,0,0,660.7,108.135Z" transform="translate(-547.661 -97.985)" fill="#222329" opacity="0.1"/><path d="M992.317,402.3s-7.212-.8-6.616,4.31a1.236,1.236,0,0,0,.571,1.333s.032-.381.762-.211a3.293,3.293,0,0,0,.784.078,1.624,1.624,0,0,0,.981-.348h0s2.077-.737,3.036-4.019c0,0,.621-.7.607-.883l-1.247.459a2.128,2.128,0,0,1,0,1.618s.04-1.584-.191-1.557c-.048,0-.649.272-.649.272a3.632,3.632,0,0,1,.042,2.665s.3-1.879-.272-2.559l-.885.459a3.79,3.79,0,0,1,.126,2.892s.246-1.976-.312-2.78l-.809.571a3.713,3.713,0,0,1,.173,2.648s.055-2.311-.35-2.505a5.027,5.027,0,0,0-.828.807s.484,1.161.118,1.742c0,0-.128-1.548-.3-1.563a5.124,5.124,0,0,0-.838,1.679,3.706,3.706,0,0,1,.678-1.786,2.032,2.032,0,0,0-1.066.485s.141-.716,1.245-.723c0,0,.6-.744.762-.782a4.459,4.459,0,0,0-1.77.112,1.98,1.98,0,0,1,1.98-.27l.8-.588a6.364,6.364,0,0,0-2.054-.084,2.482,2.482,0,0,1,2.269-.049l.863-.457a7.582,7.582,0,0,0-1.953-.268,2.99,2.99,0,0,1,2.2.147l.613-.24s-.893-.223-1.156-.263-.272-.114-.272-.114a3.121,3.121,0,0,1,1.683.272A7.457,7.457,0,0,0,992.317,402.3Z" transform="translate(-816.147 -336.15)" fill="#222329" opacity="0.1"/><path d="M1050.227,437.686s-7.212-.8-6.616,4.31a1.239,1.239,0,0,0,.571,1.333s.032-.381.762-.209a3.358,3.358,0,0,0,.782.076,1.646,1.646,0,0,0,.977-.346h0s2.075-.737,3.035-4.021c0,0,.623-.695.607-.883l-1.247.459a2.129,2.129,0,0,1,0,1.618s.04-1.582-.19-1.557c-.048,0-.649.272-.649.272a3.632,3.632,0,0,1,.042,2.665s.3-1.879-.272-2.557l-.885.457a3.79,3.79,0,0,1,.126,2.892s.246-1.976-.312-2.778l-.809.571a3.724,3.724,0,0,1,.175,2.65s.053-2.313-.352-2.507a5.022,5.022,0,0,0-.828.807s.484,1.161.118,1.742c0,0-.128-1.548-.3-1.563a5.091,5.091,0,0,0-.836,1.679,3.718,3.718,0,0,1,.676-1.786,2.049,2.049,0,0,0-1.066.486s.143-.716,1.247-.722c0,0,.6-.744.761-.784a4.476,4.476,0,0,0-1.771.114,1.978,1.978,0,0,1,1.98-.272l.8-.588a6.363,6.363,0,0,0-2.054-.084,2.479,2.479,0,0,1,2.27-.048l.862-.459a7.58,7.58,0,0,0-1.953-.268,2.99,2.99,0,0,1,2.2.147l.613-.238s-.893-.223-1.154-.265-.274-.114-.274-.114a3.132,3.132,0,0,1,1.683.274A7.532,7.532,0,0,0,1050.227,437.686Z" transform="translate(-863.032 -364.795)" fill="#222329" opacity="0.1"/><path d="M914.937,132.093s-5.81-4.346-7.887.362a1.239,1.239,0,0,0-.179,1.443s.217-.307.762.2a3.332,3.332,0,0,0,.636.465,1.636,1.636,0,0,0,1.022.19h0s2.163.417,4.655-1.927c0,0,.887-.286.971-.453l-1.308-.236a2.2,2.2,0,0,1-.813,1.4s.836-1.344.619-1.441c-.044-.021-.7-.1-.7-.1a3.619,3.619,0,0,1-1.312,2.313s1.213-1.468,1.062-2.344l-1-.053a3.8,3.8,0,0,1-1.357,2.557s1.215-1.578,1.142-2.553l-.986.08a3.66,3.66,0,0,1-1.192,2.37s1.218-1.965.967-2.338a4.786,4.786,0,0,0-1.123.276s-.171,1.245-.781,1.561c0,0,.674-1.4.537-1.5a5.118,5.118,0,0,0-1.573,1.022,3.718,3.718,0,0,1,1.489-1.2,2.051,2.051,0,0,0-1.165-.122s.486-.544,1.441.01a4.787,4.787,0,0,1,1.045-.3,4.456,4.456,0,0,0-1.584-.8,1.982,1.982,0,0,1,1.845.762l.988-.1a6.487,6.487,0,0,0-1.729-1.112s.92-.116,1.98,1.106l.977.044a7.632,7.632,0,0,0-1.548-1.222,3.005,3.005,0,0,1,1.826,1.243l.649.1s-.657-.643-.862-.811-.175-.223-.175-.223a3.13,3.13,0,0,1,1.31,1.089A7.645,7.645,0,0,0,914.937,132.093Z" transform="translate(-752.22 -115.938)" fill="#222329" opacity="0.1"/><path d="M941.532,283.373s-2-6.974-6.507-4.47a1.237,1.237,0,0,0-1.015,1.041s.358-.112.482.617a3.367,3.367,0,0,0,.228.761,1.636,1.636,0,0,0,.7.777h0s1.473,1.637,4.874,1.272c0,0,.879.308,1.047.225l-.9-.979a2.189,2.189,0,0,1-1.491.624s1.477-.571,1.363-.775c-.023-.042-.5-.5-.5-.5a3.606,3.606,0,0,1-2.441,1.053s1.852-.438,2.26-1.226l-.762-.644a3.8,3.8,0,0,1-2.625,1.218s1.919-.527,2.448-1.348l-.834-.531a3.709,3.709,0,0,1-2.382,1.171s2.157-.832,2.184-1.279a4.752,4.752,0,0,0-1.064-.457s-.889.887-1.565.773c0,0,1.382-.71,1.333-.87a5.142,5.142,0,0,0-1.871-.133,3.714,3.714,0,0,1,1.9-.055,2.042,2.042,0,0,0-.857-.8s.716-.143,1.142.876a4.752,4.752,0,0,1,1.011.4,4.452,4.452,0,0,0-.781-1.592,1.978,1.978,0,0,1,1.007,1.725l.849.516a6.331,6.331,0,0,0-.708-1.93,2.5,2.5,0,0,1,.912,2.077l.762.623a7.552,7.552,0,0,0-.5-1.9,3.008,3.008,0,0,1,.706,2.094l.453.476s-.133-.91-.19-1.169,0-.3,0-.3a3.12,3.12,0,0,1,.39,1.66A7.557,7.557,0,0,0,941.532,283.373Z" transform="translate(-774.325 -235.84)" fill="#222329" opacity="0.1"/><path d="M704.23,371.8s-3.89-6.126-7.5-2.46a1.232,1.232,0,0,0-.682,1.285s.314-.209.638.457a3.261,3.261,0,0,0,.43.659,1.626,1.626,0,0,0,.885.548h0s1.875,1.157,5.036-.152c0,0,.931.05,1.068-.078l-1.142-.685a2.189,2.189,0,0,1-1.256,1.019s1.26-.952,1.091-1.127c-.032-.034-.619-.335-.619-.335a3.617,3.617,0,0,1-2.047,1.7s1.654-.942,1.826-1.814l-.912-.4a3.792,3.792,0,0,1-2.176,1.9s1.694-1.045,1.971-1.982l-.952-.274s-.8,1.555-1.955,1.793c0,0,1.835-1.405,1.734-1.843a4.73,4.73,0,0,0-1.142-.139s-.6,1.1-1.285,1.182c0,0,1.127-1.07,1.034-1.211a5.13,5.13,0,0,0-1.833.4,3.7,3.7,0,0,1,1.816-.59,2.042,2.042,0,0,0-1.045-.527s.645-.337,1.333.52a4.7,4.7,0,0,1,1.083.1,4.383,4.383,0,0,0-1.2-1.308s.895.076,1.451,1.373l.962.255a6.365,6.365,0,0,0-1.222-1.653s.9.217,1.458,1.738l.9.381a7.587,7.587,0,0,0-1.015-1.691,3,3,0,0,1,1.266,1.811l.571.329s-.381-.836-.516-1.066-.082-.284-.082-.284a3.122,3.122,0,0,1,.84,1.483A7.74,7.74,0,0,0,704.23,371.8Z" transform="translate(-581.653 -308.549)" fill="#222329" opacity="0.1"/><path d="M838.686,206.721s-3.7-6.243-7.425-2.69a1.238,1.238,0,0,0-.72,1.264s.318-.2.623.474a3.293,3.293,0,0,0,.409.674,1.617,1.617,0,0,0,.868.571h0s1.837,1.215,5.038,0c0,0,.929.078,1.07-.046l-1.117-.72a2.189,2.189,0,0,1-1.287.979s1.289-.92,1.127-1.093c-.034-.036-.609-.356-.609-.356a3.619,3.619,0,0,1-2.094,1.633s1.683-.891,1.879-1.755l-.9-.423a3.8,3.8,0,0,1-2.235,1.839s1.727-.992,2.031-1.919l-.94-.3s-.853,1.523-2.01,1.733c0,0,1.877-1.348,1.79-1.788a4.7,4.7,0,0,0-1.142-.175s-.638,1.083-1.321,1.142c0,0,1.159-1.032,1.072-1.177a5.125,5.125,0,0,0-1.845.343,3.716,3.716,0,0,1,1.833-.533,2.047,2.047,0,0,0-1.03-.56s.657-.318,1.333.56a4.821,4.821,0,0,1,1.079.129,4.553,4.553,0,0,0-1.156-1.344s.891.1,1.407,1.416l.952.286a6.329,6.329,0,0,0-1.171-1.691s.895.246,1.405,1.782l.885.413a7.653,7.653,0,0,0-.952-1.713,3.012,3.012,0,0,1,1.211,1.849l.558.346s-.358-.847-.484-1.081-.072-.286-.072-.286a3.128,3.128,0,0,1,.794,1.508A7.364,7.364,0,0,0,838.686,206.721Z" transform="translate(-690.546 -174.776)" fill="#222329"/><path d="M724.362,264.841s.19-7.254-4.849-6.231a1.24,1.24,0,0,0-1.283.687s.381,0,.274.733a3.342,3.342,0,0,0-.011.788,1.628,1.628,0,0,0,.428.952h0s.908,2.007,4.261,2.688c0,0,.744.562.931.531l-.571-1.2a2.2,2.2,0,0,1-1.611.143s1.58-.093,1.536-.326c0-.048-.327-.626-.327-.626a3.6,3.6,0,0,1-2.644.265s1.9.143,2.526-.484l-.531-.843a3.8,3.8,0,0,1-2.871.366s1.99.08,2.743-.543l-.634-.761a3.712,3.712,0,0,1-2.625.4s2.307-.139,2.475-.56a4.935,4.935,0,0,0-.876-.762s-1.116.571-1.725.263c0,0,1.523-.255,1.533-.425a5.109,5.109,0,0,0-1.744-.693,3.706,3.706,0,0,1,1.837.525,2.047,2.047,0,0,0-.571-1.022s.725.082.824,1.18a4.732,4.732,0,0,1,.845.685,4.452,4.452,0,0,0-.263-1.753,1.975,1.975,0,0,1,.438,1.948l.653.75a6.374,6.374,0,0,0-.089-2.054,2.5,2.5,0,0,1,.24,2.256l.527.821a7.593,7.593,0,0,0,.1-1.969,3.021,3.021,0,0,1,.038,2.21l.289.59s.147-.908.166-1.173.091-.282.091-.282a3.125,3.125,0,0,1-.131,1.7A7.256,7.256,0,0,0,724.362,264.841Z" transform="translate(-599.626 -219.77)" fill="#222329"/><ellipse cx="5.127" cy="0.866" rx="5.127" ry="0.866" transform="translate(127.941 135.507)" fill="#222329" opacity="0.1"/><ellipse cx="5.127" cy="0.866" rx="5.127" ry="0.866" transform="translate(109.251 148.658)" fill="#222329" opacity="0.1"/><ellipse cx="5.127" cy="0.866" rx="5.127" ry="0.866" transform="translate(12.602 141.921)" fill="#222329" opacity="0.1"/><ellipse cx="5.127" cy="0.866" rx="5.127" ry="0.866" transform="translate(148.138 147.792)" fill="#222329" opacity="0.1"/><ellipse cx="7.655" cy="1.295" rx="7.655" ry="1.295" transform="translate(150.948 136.373)" fill="#222329"/><path d="M914.886,752.006a2.21,2.21,0,0,0,.729-1.1.978.978,0,0,0-.508-1.121,1.438,1.438,0,0,0-1.35.472,1.809,1.809,0,0,1-1.31.634,2,2,0,0,0,.617-1.868.783.783,0,0,0-.171-.381c-.261-.278-.731-.158-1.043.061a3.886,3.886,0,0,0-1.272,3.252,6.111,6.111,0,0,1-.017-1.333,1.367,1.367,0,0,0-.5-1.184,1.505,1.505,0,0,0-.762-.19,1.59,1.59,0,0,0-1.245.354,1.227,1.227,0,0,0,.048,1.523,4.923,4.923,0,0,0,1.289,1.032,2.882,2.882,0,0,1,.922.878.9.9,0,0,1,.067.156h2.791A7.7,7.7,0,0,0,914.886,752.006Z" transform="translate(-753.109 -616.457)" fill="#222329"/><path d="M170.29,777.151s2.922-.089,3.808-.718,4.5-1.376,4.718-.369,4.394,5.005,1.093,5.032-7.67-.514-8.55-1.051S170.29,777.151,170.29,777.151Z" transform="translate(-156.003 -638.391)" fill="#a8a8a8"/><path d="M179.963,787.448c-3.3.027-7.67-.514-8.55-1.051-.67-.408-.937-1.871-1.026-2.547h-.1s.19,2.359,1.064,2.894,5.249,1.078,8.55,1.051c.952,0,1.281-.346,1.264-.849C181.035,787.252,180.672,787.443,179.963,787.448Z" transform="translate(-156.003 -645.093)" opacity="0.2"/></g></g></svg>